<?xml version="1.0" encoding="utf-8"?>
<!-- Generator: Adobe Illustrator 21.0.0, SVG Export Plug-In . SVG Version: 6.00 Build 0)  -->
<svg version="1.1" id="Layer_1" xmlns="http://www.w3.org/2000/svg" xmlns:xlink="http://www.w3.org/1999/xlink" x="0px" y="0px"
	 viewBox="0 0 6.8 6.8" style="enable-background:new 0 0 6.8 6.8;" xml:space="preserve">
<style type="text/css">
	.st0{fill:#231F20;}
</style>
<path class="st0" d="M4.8,2.8c-0.2,0-0.4-0.1-0.5-0.2C4,2.3,4,1.8,4.2,1.5l1.3-1.3c0.3-0.3,0.8-0.3,1.1,0c0.3,0.3,0.3,0.8,0,1.1
	L5.3,2.6C5.2,2.7,5,2.8,4.8,2.8z"/>
<path class="st0" d="M0.8,6.8c-0.2,0-0.4-0.1-0.5-0.2c-0.3-0.3-0.3-0.8,0-1.1l1.3-1.3C1.8,4,2.3,4,2.6,4.2c0.3,0.3,0.3,0.8,0,1.1
	L1.3,6.6C1.1,6.7,0.9,6.8,0.8,6.8z"/>
<path class="st0" d="M6.1,6.8c-0.2,0-0.4-0.1-0.5-0.2L4.2,5.3C4,5,4,4.5,4.2,4.2C4.5,4,5,4,5.3,4.2l1.3,1.3c0.3,0.3,0.3,0.8,0,1.1
	C6.4,6.7,6.3,6.8,6.1,6.8z"/>
<path class="st0" d="M2,2.8c-0.2,0-0.4-0.1-0.5-0.2L0.2,1.3c-0.3-0.3-0.3-0.8,0-1.1s0.8-0.3,1.1,0l1.3,1.3c0.3,0.3,0.3,0.8,0,1.1
	C2.4,2.7,2.2,2.8,2,2.8z"/>
</svg>
