<?xml version="1.0" encoding="utf-8"?>
<!-- Generator: Adobe Illustrator 21.0.0, SVG Export Plug-In . SVG Version: 6.00 Build 0)  -->
<svg version="1.1" id="Layer_1" xmlns="http://www.w3.org/2000/svg" xmlns:xlink="http://www.w3.org/1999/xlink" x="0px" y="0px"
	 viewBox="0 0 254 237.6" style="enable-background:new 0 0 254 237.6;" xml:space="preserve">
<style type="text/css">
	.st0{fill:#1A3187;}
</style>
<g>
	<path class="st0" d="M108.6,44.3L108.6,44.3l0,46.5h17.8V45.4c0-15.2,12.4-27.6,27.6-27.6V0C129.2,0,109.2,19.7,108.6,44.3"/>
	<path class="st0" d="M253.6,44.3C253,19.7,232.9,0,208.2,0c-25.1,0-45.4,20.3-45.4,45.4c0,25.1,20.3,45.4,45.4,45.4
		c6.7,0,13-1.4,18.7-4V65.7c-4.9,4.5-11.5,7.3-18.7,7.3c-15.2,0-27.6-12.4-27.6-27.6c0-15.2,12.4-27.6,27.6-27.6
		c14.8,0,27,11.8,27.6,26.5h0v1.1c0,0,0,0,0,0c0,0,0,0,0,0v36v9.4h17.8L253.6,44.3L253.6,44.3z"/>
	<path class="st0" d="M90.7,44.3C90.2,19.7,70.1,0,45.4,0C20.3,0,0,20.3,0,45.4c0,25.1,20.3,45.4,45.4,45.4c6.7,0,13-1.4,18.7-4
		V65.7C59.2,70.2,52.6,73,45.4,73c-15.2,0-27.6-12.4-27.6-27.6c0-15.2,12.4-27.6,27.6-27.6c14.8,0,27,11.8,27.6,26.5h0v37.1v9.4
		h17.8L90.7,44.3L90.7,44.3z"/>
</g>
<g>
	<path class="st0" d="M45.8,120C21.1,120,1,139.7,0.4,164.3h0v1.1c0,0,0,0,0,0h0v45.4h17.8v-45.4c0-15.2,12.4-27.6,27.6-27.6
		c15.2,0,27.6,12.4,27.6,27.6h0v45.4h17.8v-45.4h0C91.2,140.3,70.9,120,45.8,120"/>
	<path class="st0" d="M254,164.3c-0.6-24.6-20.7-44.3-45.4-44.3c-25.1,0-45.4,20.3-45.4,45.4c0,25.1,20.3,45.4,45.4,45.4
		c6.7,0,13-1.4,18.7-4v-21.1c-4.9,4.5-11.5,7.3-18.7,7.3c-15.2,0-27.6-12.4-27.6-27.6c0-15.2,12.4-27.6,27.6-27.6
		c14.8,0,27,11.8,27.6,26.5h0v46.5H254L254,164.3L254,164.3z"/>
	<path class="st0" d="M136.1,120L136.1,120h-26.7v17.9h18.2l0,8.8v36.7c0,20.1-16.4,36.5-36.4,36.5l-17.8,0v17.8h17.8
		c29.9,0,54.3-24.4,54.3-54.3V120H136.1z"/>
</g>
</svg>
