<svg xmlns="http://www.w3.org/2000/svg" width="298" height="602" xmlns:xlink="http://www.w3.org/1999/xlink">
  <defs>
    <rect id="a" width="6" height="25" y="76" rx="3"/>
    <rect id="b" width="6" height="44" y="129" rx="3"/>
    <rect id="c" width="6" height="44" y="184" rx="3"/>
    <rect id="d" width="6" height="44" x="292" y="129" rx="3"/>
    <rect id="e" width="292" height="602" x="3" rx="40"/>
    <rect id="f" width="45" height="45" x="127" y="540" rx="22.5"/>
    <circle id="g" cx="150" cy="19" r="4"/>
    <circle id="h" cx="103" cy="38" r="5"/>
    <rect id="i" width="47" height="6" x="126" y="35" rx="3"/>
    <rect id="j" width="260" height="462" x="19" y="57" rx="3"/>
  </defs>
  <g fill="none" fill-rule="evenodd">
    <use fill="#FFF" xlink:href="#a"/>
    <rect width="5" height="24" x=".5" y="76.5" stroke="#E0E0E0" rx="2.5"/>
    <use fill="#FFF" xlink:href="#b"/>
    <rect width="5" height="43" x=".5" y="129.5" stroke="#E0E0E0" rx="2.5"/>
    <use fill="#FFF" xlink:href="#c"/>
    <rect width="5" height="43" x=".5" y="184.5" stroke="#E0E0E0" rx="2.5"/>
    <use fill="#FFF" xlink:href="#d"/>
    <rect width="5" height="43" x="292.5" y="129.5" stroke="#E0E0E0" rx="2.5"/>
    <use fill="#FFF" xlink:href="#e"/>
    <rect width="291" height="601" x="3.5" y=".5" stroke="#E0E0E0" rx="40"/>
    <use fill="#F9F9F9" xlink:href="#f"/>
    <rect width="44" height="44" x="127.5" y="540.5" stroke="#E0E0E0" rx="22"/>
    <use fill="#E0E0E0" xlink:href="#g"/>
    <circle cx="150" cy="19" r="3.5" stroke="#F9F9F9"/>
    <use fill="#E0E0E0" xlink:href="#h"/>
    <circle cx="103" cy="38" r="4.5" stroke="#F9F9F9"/>
    <use fill="#E0E0E0" xlink:href="#i"/>
    <rect width="46" height="5" x="126.5" y="35.5" stroke="#F9F9F9" rx="2.5"/>
    <use fill="#43445B" xlink:href="#j"/>
    <rect width="262" height="464" x="18" y="56" stroke="#E0E0E0" stroke-width="2" rx="3"/>
  </g>
</svg>
