<?xml version="1.0" encoding="utf-8"?>
<svg version="1.1" id="Layer_1" xmlns="http://www.w3.org/2000/svg" xmlns:xlink="http://www.w3.org/1999/xlink" x="0px" y="0px"
	 viewBox="0 0 124.7 156.6" style="enable-background:new 0 0 124.7 156.6;" xml:space="preserve">
<style type="text/css">
	.st0{fill:#006AD4;}
	.st1{fill:#FFFFFF;}
</style>
<path class="st0" d="M62.3,0c16,0,31.9,7.2,43.5,18.8c11.6,13,18.9,27.5,18.9,45s-7.2,36.2-18.9,47.8l-43.5,44.9l-43.5-44.9
	C7.2,100,0,82.6,0,63.8c0-17.4,5.8-31.9,18.8-44.9C30.5,7.2,46.4,0,62.3,0z"/>
<path class="st1" d="M97,62.7c-0.4-18.8-15.8-33.9-34.7-33.9c-19.2,0-34.7,15.5-34.7,34.7s15.5,34.7,34.7,34.7
	c5.1,0,9.9-1.1,14.3-3.1V79c-3.8,3.5-8.8,5.6-14.3,5.6c-11.6,0-21.1-9.5-21.1-21.1s9.5-21.1,21.1-21.1c11.4,0,20.6,9,21.1,20.3l0,0
	v28.4v7.2H97V62.7L97,62.7z"/>
</svg>
