<svg id="Layer_1" xmlns="http://www.w3.org/2000/svg" xmlns:xlink="http://www.w3.org/1999/xlink" viewBox="0 0 128.7 128.7" style="enable-background:new 0 0 128.7 128.7;">
  <style>
    .st0{clip-path:url(#SVGID_2_);fill:#00385F;} .st1{clip-path:url(#SVGID_2_);fill:#E3000B;}
  </style>
  <defs>
    <path id="SVGID_1_" d="M0 0h128.7v128.7H0z"/>
  </defs>
  <clipPath id="SVGID_2_">
    <use xlink:href="#SVGID_1_" style="overflow:visible;"/>
  </clipPath>
  <path class="st0" d="M2.6 0S0 0 0 2.6v123.6s0 2.6 2.6 2.6h123.6s2.6 0 2.6-2.6V2.6s0-2.6-2.6-2.6H2.6z"/>
  <path class="st1" d="M95.4 102.6c5.8 0 7.6-4.2 6.4-8-1.4-4.3-12.3-36.4-12.3-36.4S78.2 92.1 76.8 96.5c-2.2 7.1-12.1 4.4-9.8-3.3 2.3-7.7 16.2-51.2 17.9-56.5 2.3-7 5.4-10.4 12.5-10.8-4.8 0-28.2-.1-34.4 0-6.2.1-10.3 4.3-11.8 9.1-1.5 4.9-16.8 52.7-18.3 57.4-1.8 5.6-5.3 9-9 10.2 5.1-.1 71.5 0 71.5 0"/>
</svg>
