<?xml version="1.0" encoding="utf-8"?>
<!-- Generator: Adobe Illustrator 21.0.0, SVG Export Plug-In . SVG Version: 6.00 Build 0)  -->
<svg version="1.1" id="Layer_1" xmlns="http://www.w3.org/2000/svg" xmlns:xlink="http://www.w3.org/1999/xlink" x="0px" y="0px"
	 viewBox="0 0 36.5 31.1" style="enable-background:new 0 0 36.5 31.1;" xml:space="preserve">
<g>
	<g>
		<path d="M36.5,1.3V0H21.3v1.3h5.3v16.9c0,2.7-0.2,3.9-1.2,5.4c0,0,0,0.1-0.1,0.1c-2.2-3.7-4.4-5.3-7.6-5.3c-3.2,0-5.8,2-5.8,4.6
			c0,0.7,0,1.5,0.6,2.5c1.3,2.5,4.8,3.1,6.1,3.1c1.4,0,2.7-0.1,3.9-0.4c1.8,1.8,4,2.9,6.3,2.9c1.3,0,2.6-0.3,3.7-0.9
			c2.8-1.5,3.8-3.4,3.8-7.4v-0.3h-1v0.4c0,1.5-0.2,2.8-0.6,3.8c-0.6,1.5-2.4,2.7-3.9,2.7c-1.6,0-3.1-1-3.9-2.6
			c1.5-0.8,2.7-1.7,3.6-2.9c1.1-1.5,1.7-3.5,1.7-5.8v-1V1.3H36.5z M13.2,23.2c0-1.7,1.2-3,2.9-3s2.9,1.1,4,3.7
			c0.5,1.1,0.8,1.9,1,2.2c0,0.1,0.1,0.2,0.3,0.5c-0.2,0.1-1.5,0.5-2.8,0.5C15.1,27.1,13.2,25.2,13.2,23.2z"/>
		<path d="M9.9,17.9V1.3h5.3V0H0v1.3h4.2v15.6v1c0,2.3,0.6,4.3,1.7,5.8c1.2,1.5,3.8,3.3,6,4.1c-1.1-0.7-1.7-1.9-1.9-3.5
			C9.9,23.2,9.9,19.8,9.9,17.9z"/>
	</g>
</g>
</svg>
