<?xml version="1.0" encoding="UTF-8"?>
<svg width="46px" height="45px" viewBox="0 0 46 45" version="1.1" xmlns="http://www.w3.org/2000/svg" xmlns:xlink="http://www.w3.org/1999/xlink">
    <!-- Generator: Sketch 45.1 (43504) - http://www.bohemiancoding.com/sketch -->
    <title>Fill 56</title>
    <desc>Created with Sketch.</desc>
    <defs></defs>
    <g id="LEARN" stroke="none" stroke-width="1" fill="none" fill-rule="evenodd">
        <path d="M43.0393593,0 L2.96019905,0 C1.5869928,0 0.473940441,1.11172729 0.473940441,2.48360849 L0.473940441,42.5163915 C0.473940441,43.887831 1.5869928,45 2.96019905,45 L24.537514,45 L24.537514,27.5736637 L18.6661628,27.5736637 L18.6661628,20.7822775 L24.537514,20.7822775 L24.537514,15.7739836 C24.537514,9.96137689 28.0917728,6.79668636 33.2824837,6.79668636 C35.769184,6.79668636 37.9060678,6.98131171 38.5288471,7.06434895 L38.5288471,13.1384347 L34.9286528,13.1402014 C32.1053866,13.1402014 31.5590193,14.4798394 31.5590193,16.4462319 L31.5590193,20.7822775 L38.2916609,20.7822775 L37.4153531,27.5736637 L31.5590193,27.5736637 L31.5590193,45 L43.0393593,45 C44.4125655,45 45.5260596,43.887831 45.5260596,42.5163915 L45.5260596,2.48360849 C45.5260596,1.11172729 44.4125655,0 43.0393593,0" id="Fill-56" fill="#3B5998"></path>
    </g>
</svg>