<?xml version="1.0" encoding="UTF-8"?>
<svg width="56px" height="45px" viewBox="0 0 56 45" version="1.1" xmlns="http://www.w3.org/2000/svg" xmlns:xlink="http://www.w3.org/1999/xlink">
    <!-- Generator: Sketch 45.1 (43504) - http://www.bohemiancoding.com/sketch -->
    <title>Shape</title>
    <desc>Created with Sketch.</desc>
    <defs></defs>
    <g id="LEARN" stroke="none" stroke-width="1" fill="none" fill-rule="evenodd">
        <path d="M17.3826797,45 C38.2811067,45 49.7116647,27.685806 49.7116647,12.671015 C49.7116647,12.1792352 49.7116647,11.6896706 49.6784363,11.2023212 C51.902148,9.59387083 53.8216934,7.6023144 55.3471956,5.32090042 C53.2734776,6.23977944 51.0736495,6.84238001 48.8211445,7.10858652 C51.1930827,5.68858793 52.9683182,3.45517637 53.8164755,0.823994877 C51.5860934,2.14749247 49.1459985,3.08022756 46.6014896,3.58194926 C43.0794661,-0.163121792 37.4830043,-1.0797411 32.9502783,1.34607881 C28.4175524,3.77189871 26.0758294,8.93686822 27.2382131,13.944769 C18.1023966,13.4867704 9.59057417,9.17167656 3.82107585,2.07338144 C0.805319753,7.26508044 2.34570956,13.9067989 7.33885221,17.241023 C5.5306558,17.1874312 3.76188366,16.6996513 2.18180979,15.8188489 C2.18180979,15.8653686 2.18180979,15.9141035 2.18180979,15.9628385 C2.18328985,21.3715148 5.99587571,26.0300037 11.2974582,27.1009868 C9.62467492,27.5571902 7.86957697,27.6238779 6.1669985,27.2959265 C7.65551395,31.924467 11.9212091,35.0952529 16.7823539,35.1865559 C12.7589194,38.348638 7.78867459,40.065206 2.67137438,40.0600496 C1.76734921,40.0583141 0.864203318,40.0035779 -0.0334146173,39.896123 C5.16269539,43.2306483 11.2086574,44.9993729 17.3826797,44.9911391" id="Shape" fill="#1DA1F2" fill-rule="nonzero"></path>
    </g>
</svg>